{"glyphs":{":":{"x_min":0,"x_max":240,"ha":240,"o":"m 87 481 l 87 454 b 87 435 101 421 120 421 b 139 421 153 435 153 454 l 153 481 b 153 500 139 514 120 514 b 101 514 87 500 87 481 z m 87 56 l 87 29 b 87 10 101 -4 120 -4 b 139 -4 153 10 153 29 l 153 56 b 153 75 139 89 120 89 b 101 89 87 75 87 56 z"},"$":{"x_min":0,"x_max":632,"ha":632,"o":"m 579 187 b 579 241 550 283 505 313 b 460 342 400 361 330 375 l 330 683 b 410 680 471 641 526 605 b 531 602 538 603 541 608 b 545 614 543 621 538 624 b 484 660 417 703 330 706 l 330 733 b 330 745 330 755 318 755 b 306 755 308 745 308 733 l 308 706 b 186 700 86 626 85 530 b 85 480 112 441 154 413 b 193 387 247 368 308 356 l 308 20 b 217 26 133 74 81 116 b 76 120 69 119 65 115 b 61 110 62 102 67 98 b 121 54 209 3 308 -3 l 308 -27 b 308 -39 306 -49 318 -49 b 330 -49 330 -39 330 -27 l 330 -3 b 465 -1 578 81 579 187 z m 167 432 b 129 458 108 489 108 530 b 108 571 131 609 169 637 b 205 663 254 680 308 683 l 308 379 b 251 391 202 408 167 432 z m 489 70 b 448 40 393 21 330 20 l 330 352 b 396 339 453 321 492 294 b 533 266 556 232 556 187 b 556 142 531 101 489 70 z"},"?":{"x_min":0,"x_max":534,"ha":534,"o":"m 212 155 b 212 149 217 143 224 143 b 230 143 236 149 236 155 l 236 277 b 345 283 435 376 435 488 b 435 605 339 700 224 700 b 145 700 77 658 41 594 b 37 589 39 582 45 578 b 50 575 57 577 61 582 b 94 639 154 676 224 676 b 326 676 410 592 410 488 b 410 386 326 301 224 301 b 217 301 212 296 212 289 l 212 288 l 212 286 z m 212 12 b 212 5 217 0 224 0 b 230 0 236 5 236 12 l 236 35 b 236 41 230 47 224 47 b 217 47 212 41 212 35 z"},"<":{"x_min":0,"x_max":620,"ha":620,"o":"m 396 4 b 399 1 403 0 406 0 b 410 0 415 1 418 4 b 422 10 422 19 418 25 l 96 348 l 418 672 b 422 678 422 688 418 694 b 412 700 402 700 396 694 l 66 360 l 65 359 l 63 357 b 62 355 61 353 60 350 b 60 348 60 346 61 344 b 61 342 63 340 65 338 b 65 337 65 337 66 337 l 396 4 z"},"'":{"x_min":0,"x_max":230,"ha":230,"o":"m 70 461 b 68 446 75 442 84 442 b 93 442 97 447 101 460 l 158 661 b 160 670 163 679 163 685 b 163 697 156 702 147 702 l 128 702 b 112 702 103 694 100 676 z"},"=":{"x_min":0,"x_max":620,"ha":620,"o":"m 94 231 l 94 231 l 436 231 l 436 231 b 444 231 451 236 451 244 l 451 244 b 451 252 444 260 436 260 l 94 260 l 94 260 b 85 260 79 252 79 244 l 79 244 b 79 236 85 231 94 231 z m 94 439 l 94 439 l 436 439 l 436 439 b 444 439 451 445 451 451 l 451 451 b 451 459 444 466 436 466 l 94 466 l 94 466 b 85 466 79 459 79 451 l 79 451 b 79 445 85 439 94 439 z"},"a":{"x_min":0,"x_max":619,"ha":619,"o":"m 490 490 b 482 490 477 483 477 477 l 477 355 b 439 434 361 490 271 490 b 143 490 40 379 40 245 b 40 111 143 0 271 0 b 361 0 439 55 477 135 l 477 13 b 477 5 482 0 490 0 b 497 0 502 5 502 13 l 502 477 b 502 483 497 490 490 490 z m 271 25 b 158 25 65 123 65 245 b 65 366 158 464 271 464 b 384 464 477 366 477 245 b 477 123 384 25 271 25 z"},"L":{"x_min":0,"x_max":563,"ha":563,"o":"m 490 0 b 498 0 503 6 503 13 b 503 20 498 25 490 25 l 129 25 l 129 687 b 129 694 124 700 117 700 b 110 700 104 694 104 687 l 104 13 b 104 6 110 0 117 0 l 119 0 z"},"3":{"x_min":0,"x_max":610,"ha":610,"o":"m 264 466 l 470 677 b 471 678 472 680 473 682 b 474 684 474 686 474 688 b 474 695 468 701 461 701 l 122 701 b 115 701 109 695 109 688 b 109 681 115 675 122 675 l 431 675 l 229 467 b 224 462 224 453 229 448 b 229 448 230 448 230 447 b 233 443 237 441 242 441 b 295 441 347 421 388 381 b 428 340 448 287 448 235 b 448 181 428 128 387 88 b 347 47 294 27 240 27 b 187 27 135 47 94 87 b 89 92 81 92 76 87 b 71 82 71 74 76 69 b 121 23 181 1 240 1 b 241 1 241 1 241 1 b 300 1 360 24 406 69 b 451 115 474 175 474 235 b 474 294 451 354 406 399 b 367 439 316 461 264 466 z"},";":{"x_min":0,"x_max":240,"ha":240,"o":"m 87 481 l 87 454 b 87 435 101 421 120 421 b 139 421 153 435 153 454 l 153 481 b 153 500 139 514 120 514 b 101 514 87 500 87 481 z m 59 -90 b 59 -100 67 -105 74 -105 b 83 -105 108 -91 126 -73 b 144 -55 153 -25 153 31 l 153 56 b 153 75 139 89 120 89 b 101 89 87 75 87 56 l 87 35 b 87 15 99 4 114 0 b 117 -35 103 -57 67 -77 b 62 -80 59 -85 59 -90 z"},"J":{"x_min":0,"x_max":594,"ha":594,"o":"m 45 162 b 75 68 162 0 266 0 b 395 0 499 105 499 234 l 499 687 b 499 694 494 700 486 700 b 480 700 475 694 475 687 l 475 234 b 474 119 381 27 266 25 b 174 25 95 86 69 170 b 66 177 60 180 52 178 b 46 176 42 168 45 162 z"},"V":{"x_min":0,"x_max":750,"ha":750,"o":"m 349 1 b 349 1 350 1 351 0 l 353 0 l 354 0 b 355 0 357 0 358 1 l 359 1 b 362 2 364 4 365 7 b 365 7 366 7 366 8 l 649 681 b 651 687 649 695 642 697 b 636 700 628 697 626 691 l 354 46 l 83 691 b 79 697 72 700 65 697 b 59 695 56 687 59 681 l 342 8 b 343 6 344 4 346 3 b 347 2 348 1 349 1 z"},"\"":{"x_min":0,"x_max":410,"ha":410,"o":"m 250 461 b 248 446 255 442 264 442 b 273 442 277 447 281 460 l 338 661 b 340 670 343 679 343 685 b 343 697 336 702 327 702 l 308 702 b 292 702 283 694 280 676 z m 70 461 b 68 446 75 442 84 442 b 93 442 97 447 101 460 l 158 661 b 160 670 163 679 163 685 b 163 697 156 702 147 702 l 128 702 b 112 702 103 694 100 676 z"},"7":{"x_min":0,"x_max":587,"ha":587,"o":"m 178 1 b 180 1 182 0 183 0 b 188 0 193 4 194 8 l 476 677 b 478 680 480 683 480 686 b 480 692 473 699 467 699 l 77 699 b 70 699 64 692 64 686 b 64 679 70 673 77 673 l 446 673 l 171 18 b 169 11 171 4 178 1 z"},"S":{"x_min":0,"x_max":667,"ha":667,"o":"m 326 -5 b 475 -5 591 82 591 193 b 591 325 470 353 352 380 b 241 406 136 431 136 538 b 136 615 222 678 327 678 b 453 678 520 603 521 602 b 525 597 533 597 539 601 b 544 606 545 614 540 619 b 537 623 465 704 327 704 b 207 704 110 629 110 538 b 110 410 230 382 346 355 b 459 329 566 304 566 193 b 566 96 461 20 326 20 b 189 20 84 114 83 115 b 78 120 70 119 65 114 b 60 109 61 101 66 96 b 70 92 179 -5 326 -5 z"},"}":{"x_min":0,"x_max":480,"ha":480,"o":"m 74 -139 b 243 -105 275 -41 275 62 l 275 141 b 275 219 298 268 401 268 b 417 268 425 276 425 287 b 425 298 417 306 401 306 b 298 306 275 355 275 433 l 275 512 b 275 615 243 679 74 713 b 63 715 53 716 53 704 b 53 696 59 693 65 691 b 210 653 246 605 246 506 l 246 431 b 246 342 287 306 350 287 b 283 265 246 232 246 143 l 246 68 b 246 -31 210 -79 65 -117 b 59 -119 53 -123 53 -131 b 53 -143 63 -141 74 -139 z"},"Z":{"x_min":0,"x_max":667,"ha":667,"o":"m 549 673 l 76 23 b 72 21 71 17 71 13 b 71 6 76 0 84 0 l 85 0 l 575 0 b 583 0 588 6 588 13 b 588 20 583 25 575 25 l 108 25 l 583 676 b 584 677 585 677 586 679 b 586 679 587 680 587 681 b 587 682 588 684 588 686 b 588 692 583 699 575 699 l 84 699 b 76 699 71 692 71 686 b 71 679 76 673 84 673 z"},"x":{"x_min":0,"x_max":570,"ha":570,"o":"m 73 3 b 76 0 78 0 81 0 b 85 0 88 1 91 5 l 251 223 l 408 5 b 411 1 415 0 420 0 b 422 0 425 0 426 3 b 432 6 434 14 430 20 l 267 245 l 430 469 b 434 474 432 482 426 486 b 421 490 413 488 408 483 l 251 265 l 91 483 b 87 488 80 490 73 486 b 68 482 67 474 71 469 l 235 245 l 71 20 b 67 14 68 6 73 3 z"},")":{"x_min":0,"x_max":430,"ha":430,"o":"m 242 25 b 275 97 290 195 290 303 l 290 303 b 290 411 275 509 242 582 l 242 582 b 209 655 153 704 75 703 l 75 703 b 67 703 60 697 60 689 l 60 689 b 60 681 67 674 75 674 l 75 674 b 140 674 184 637 215 570 l 215 570 b 246 503 261 408 261 303 l 261 303 b 261 198 246 103 215 37 l 215 37 b 184 -30 140 -68 75 -68 l 75 -68 l 75 -68 b 67 -68 60 -74 60 -82 l 60 -82 b 60 -90 67 -97 75 -97 l 75 -97 b 75 -97 75 -97 75 -97 l 75 -97 b 153 -97 209 -48 242 25 z"},"&":{"x_min":0,"x_max":696,"ha":696,"o":"m 49 224 b 49 100 149 0 273 0 b 398 0 498 100 498 224 b 498 244 496 263 491 282 b 504 284 517 290 528 299 b 547 313 560 337 559 368 b 559 379 558 391 555 402 b 554 410 547 413 540 412 b 533 411 528 403 531 397 b 533 386 535 377 535 368 b 533 344 526 330 513 320 b 500 311 484 306 466 306 l 460 306 b 447 307 436 307 424 307 b 352 307 308 289 281 264 b 254 238 249 207 249 184 b 249 165 253 151 253 151 b 256 145 261 142 266 142 l 270 142 b 276 145 280 151 277 159 b 277 159 277 160 276 165 b 276 170 275 176 275 184 b 275 203 280 227 299 246 b 319 265 356 282 424 282 b 436 282 446 282 459 280 l 465 280 b 470 262 473 243 473 224 b 473 114 384 25 273 25 b 163 25 74 114 74 224 b 74 301 118 369 183 403 b 185 403 187 404 189 406 b 194 409 196 415 194 421 b 194 421 193 421 193 422 b 192 423 191 425 190 426 b 154 451 133 492 133 538 b 133 614 194 675 268 675 b 344 675 405 614 405 538 b 405 531 412 525 418 525 b 426 525 431 531 431 538 b 431 628 358 700 268 700 b 180 700 107 628 107 538 b 107 490 127 448 159 418 b 93 379 49 306 49 224 z"},"_":{"x_min":0,"x_max":600,"ha":600,"o":"m -2 -160 l 332 -160 b 344 -160 354 -155 354 -143 b 354 -131 344 -126 332 -126 l -2 -126 b -14 -126 -24 -131 -24 -143 b -24 -155 -14 -160 -2 -160 z"},"v":{"x_min":0,"x_max":582,"ha":582,"o":"m 251 8 b 253 4 257 1 260 0 l 263 0 l 264 0 b 267 0 270 2 273 5 b 274 6 275 8 275 9 l 470 471 b 473 477 469 484 462 487 b 456 490 449 487 447 480 l 263 45 l 79 480 b 76 487 70 490 63 487 b 57 484 53 477 56 471 l 251 8 z"},"O":{"x_min":0,"x_max":850,"ha":850,"o":"m 73 349 l 73 349 b 74 148 225 -13 414 -13 l 414 -13 b 603 -13 754 148 756 349 l 756 349 b 754 549 603 710 414 710 l 414 710 b 225 710 74 549 73 349 z m 100 349 l 100 349 b 100 535 242 684 414 684 l 414 684 b 585 684 727 535 728 349 l 728 349 b 727 164 585 16 414 14 l 414 14 b 242 16 100 164 100 349 z"},"(":{"x_min":0,"x_max":430,"ha":430,"o":"m 119 25 l 119 25 b 152 -48 208 -97 286 -97 l 286 -97 b 286 -97 286 -97 286 -97 l 286 -97 b 294 -97 301 -90 301 -82 l 301 -82 b 301 -74 294 -68 286 -68 l 286 -68 l 286 -68 b 221 -68 177 -30 146 37 l 146 37 b 115 103 100 198 100 303 l 100 303 b 100 408 115 503 146 570 l 146 570 b 177 637 221 674 286 674 l 286 674 b 294 674 301 681 301 689 l 301 689 b 301 697 294 703 286 703 l 286 703 b 208 704 152 655 119 582 l 119 582 b 86 509 71 411 71 303 l 71 303 b 71 195 86 97 119 25 z"},"C":{"x_min":0,"x_max":771,"ha":771,"o":"m 73 356 l 73 356 b 73 160 236 1 436 0 l 436 0 b 522 0 600 30 663 77 l 663 77 b 669 82 671 90 666 95 l 666 95 b 661 101 653 101 647 97 l 647 97 l 647 97 b 589 52 516 26 436 26 l 436 26 b 251 26 99 173 99 356 l 99 356 b 99 537 251 684 436 684 l 436 684 b 517 684 590 658 648 613 l 648 613 b 653 608 661 609 667 615 l 667 615 b 671 620 669 628 663 633 l 663 633 b 602 680 522 710 436 710 l 436 710 b 236 710 73 550 73 356 z"},"W":{"x_min":0,"x_max":1102,"ha":1102,"o":"m 764 9 b 767 2 770 0 777 0 b 785 0 787 4 789 8 l 1072 681 b 1075 687 1072 695 1065 697 b 1058 700 1052 697 1048 691 l 776 45 l 581 510 b 578 516 572 520 567 519 b 562 519 556 516 554 510 l 358 45 l 87 691 b 84 697 76 700 70 697 b 64 695 60 687 64 681 l 347 8 b 350 2 352 0 358 0 b 363 0 367 1 370 8 l 568 478 z"},"A":{"x_min":0,"x_max":646,"ha":646,"o":"m 564 11 b 567 6 572 2 577 2 b 578 2 579 3 581 3 b 587 6 591 13 588 20 l 336 692 b 333 697 328 700 323 700 b 317 701 312 698 310 692 l 58 20 b 55 13 58 6 64 3 b 66 3 68 2 69 2 b 74 2 79 6 80 11 l 147 190 l 497 190 z m 322 654 l 487 216 l 157 216 z"},"f":{"x_min":0,"x_max":362,"ha":362,"o":"m 280 701 b 241 701 210 693 188 669 b 167 645 158 610 158 560 l 158 494 l 78 494 b 71 494 65 488 65 481 b 65 474 71 468 78 468 l 158 468 l 158 14 b 158 7 164 1 171 1 b 178 1 184 7 184 14 l 184 468 l 268 468 b 275 468 280 474 280 481 b 280 488 275 494 268 494 l 184 494 l 184 560 b 184 607 192 636 207 652 b 221 668 244 676 280 676 b 287 676 293 682 293 689 b 293 696 287 701 280 701 z"},"Q":{"x_min":0,"x_max":844,"ha":844,"o":"m 807 -71 b 803 -66 794 -65 789 -69 b 739 -109 693 -123 650 -123 b 595 -123 541 -100 488 -69 b 453 -47 416 -41 384 -41 l 527 26 b 650 80 736 208 736 354 b 736 550 586 710 400 710 b 217 710 67 550 66 354 b 67 159 217 1 400 1 b 403 1 406 1 409 1 l 266 -66 b 250 -75 263 -99 279 -91 b 298 -82 339 -66 384 -66 b 413 -66 445 -72 476 -91 b 530 -123 586 -148 650 -148 b 700 -148 752 -131 805 -90 b 811 -84 812 -77 807 -71 z m 93 354 b 93 538 233 683 400 683 b 572 683 711 538 711 354 b 711 172 572 26 400 26 b 233 26 93 172 93 354 z"},"w":{"x_min":0,"x_max":861,"ha":861,"o":"m 551 1 b 553 0 554 0 557 0 b 559 0 561 1 564 3 b 566 4 568 6 568 8 l 763 471 b 766 477 762 485 756 487 b 749 490 742 487 740 481 l 556 45 l 425 357 b 422 361 418 364 413 364 b 407 365 401 362 399 357 l 268 45 l 85 481 b 82 487 74 490 68 487 b 61 485 58 477 61 471 l 255 10 b 255 7 257 4 260 2 b 262 1 264 0 265 0 l 267 0 l 271 0 b 275 1 278 4 280 8 l 412 322 l 544 8 l 544 7 b 544 6 545 6 545 6 b 545 5 546 4 547 3 b 548 2 549 1 551 1 z"},"-":{"x_min":0,"x_max":408,"ha":408,"o":"m 76 340 l 76 340 l 304 340 l 304 340 b 310 340 313 343 313 349 l 313 349 b 313 355 310 360 304 360 l 76 360 l 76 360 b 70 360 66 355 66 349 l 66 349 b 66 343 70 340 76 340 z"},"E":{"x_min":0,"x_max":593,"ha":593,"o":"m 119 0 l 489 0 b 496 0 501 6 501 13 b 501 20 496 25 489 25 l 129 25 l 129 338 l 446 338 b 453 338 458 343 458 351 b 458 357 453 363 446 363 l 129 363 l 129 675 l 489 675 b 496 675 501 680 501 687 b 501 694 496 700 489 700 l 118 700 l 117 700 l 116 700 b 108 699 104 693 104 687 l 104 13 b 104 6 108 0 116 0 l 118 0 z"},"s":{"x_min":0,"x_max":492,"ha":492,"o":"m 251 0 b 356 0 439 62 439 141 b 439 236 349 257 269 275 b 190 294 122 310 122 381 b 122 433 180 474 251 474 b 337 474 382 424 383 423 b 387 418 395 417 401 422 b 406 427 407 435 402 440 b 400 443 349 500 251 500 b 166 500 96 447 96 381 b 96 289 185 269 263 250 b 340 232 413 216 413 141 b 413 77 340 25 251 25 b 157 25 85 89 84 90 b 79 95 71 94 66 89 b 61 84 62 76 67 71 b 70 68 147 0 251 0 z"},">":{"x_min":0,"x_max":620,"ha":620,"o":"m 115 4 l 445 337 l 446 338 l 447 339 b 448 341 449 343 450 344 l 450 346 b 451 348 450 350 450 352 b 449 354 448 356 447 357 b 447 358 446 358 446 359 b 445 359 445 360 444 360 l 115 694 b 109 700 99 700 93 694 b 89 688 89 678 93 672 l 414 348 l 93 25 b 89 19 89 10 93 4 b 96 1 101 0 105 0 b 108 0 112 1 115 4 z"},"l":{"x_min":0,"x_max":249,"ha":249,"o":"m 100 13 l 100 13 b 100 6 105 0 113 0 l 113 0 b 120 0 125 6 125 13 l 125 687 l 125 687 b 125 694 120 700 113 700 l 113 700 b 105 700 100 694 100 687 l 100 13 z"},"8":{"x_min":0,"x_max":630,"ha":630,"o":"m 139 561 b 139 506 171 458 219 436 b 125 410 55 324 55 222 b 55 99 156 0 278 0 b 401 0 501 99 501 222 b 501 324 431 410 337 436 b 383 458 416 506 416 561 b 416 638 354 700 278 700 b 201 700 139 638 139 561 z m 80 222 b 80 331 169 420 278 420 b 388 420 476 331 476 222 b 476 113 388 25 278 25 b 169 25 80 113 80 222 z m 164 561 b 164 624 215 674 278 675 b 340 674 391 624 391 561 b 391 499 340 448 278 448 b 215 448 164 499 164 561 z"},"\\":{"x_min":0,"x_max":448,"ha":448,"o":"m 364 2 b 370 5 373 12 370 19 l 370 19 l 87 691 b 85 697 77 701 71 698 l 71 698 b 65 696 61 688 63 682 l 63 682 l 348 9 b 349 4 354 1 359 1 l 359 1 b 360 1 363 1 364 2 l 364 2 z"},"e":{"x_min":0,"x_max":609,"ha":609,"o":"m 296 0 b 378 0 451 46 493 111 b 497 117 495 125 490 128 b 483 131 476 131 472 125 b 435 65 370 25 296 25 b 178 26 83 125 83 245 l 83 248 l 519 248 b 525 248 530 254 531 260 l 531 261 l 531 263 l 531 264 b 522 391 421 490 296 490 b 165 490 60 381 58 245 b 60 111 165 2 296 0 z m 296 464 b 403 464 493 381 506 272 l 84 272 b 97 381 187 464 296 464 z"},"b":{"x_min":0,"x_max":660,"ha":660,"o":"m 93 13 b 93 6 98 0 106 0 b 112 0 118 6 118 13 l 118 134 b 157 55 237 0 329 0 b 461 0 567 111 567 246 b 567 380 461 490 329 490 b 237 490 157 435 118 355 l 118 685 b 118 692 112 700 106 700 b 98 700 93 692 93 685 l 93 256 l 93 246 l 93 234 z m 118 255 b 122 372 217 465 329 465 b 446 465 542 367 542 246 b 542 124 446 25 329 25 b 214 25 118 124 118 246 z"},"m":{"x_min":0,"x_max":951,"ha":951,"o":"m 829 13 b 829 6 836 0 842 0 b 849 0 854 6 854 13 l 854 292 b 854 401 767 490 659 490 b 574 490 502 437 474 362 b 446 437 374 490 290 490 b 216 490 153 449 119 388 l 119 477 b 119 485 113 490 107 490 b 99 490 95 485 95 477 l 95 316 b 94 308 93 300 93 292 l 93 13 b 93 6 98 1 104 0 l 107 0 b 109 0 112 1 114 3 b 115 3 115 4 116 4 b 116 5 116 5 117 6 b 118 8 119 10 119 13 l 119 299 b 122 391 198 465 290 465 b 385 465 462 388 462 292 l 462 13 b 462 6 467 0 474 0 b 478 0 481 1 484 4 b 484 5 484 5 485 6 b 485 7 486 8 486 9 b 487 10 487 11 487 13 l 487 292 l 487 299 b 490 391 566 465 659 465 b 752 465 829 388 829 292 l 829 13 z"},"#":{"x_min":0,"x_max":700,"ha":700,"o":""},",":{"x_min":0,"x_max":230,"ha":230,"o":"m 54 -90 b 54 -100 62 -105 69 -105 b 78 -105 103 -91 121 -73 b 139 -55 148 -25 148 31 l 148 56 b 148 75 134 89 115 89 b 96 89 82 75 82 56 l 82 35 b 82 15 94 4 109 0 b 112 -35 98 -57 62 -77 b 57 -80 54 -85 54 -90 z"},"n":{"x_min":0,"x_max":613,"ha":613,"o":"m 463 13 b 463 6 467 0 475 0 b 482 0 488 6 488 13 l 488 292 b 488 402 399 490 291 490 b 217 490 152 449 118 388 l 118 478 b 118 486 113 490 106 490 b 99 490 93 486 93 478 l 93 300 l 93 292 l 93 13 l 93 11 b 93 9 94 7 95 6 b 95 5 95 5 96 4 b 97 3 98 2 99 2 b 100 1 101 1 102 0 l 104 0 l 106 0 b 110 0 113 2 115 5 b 117 7 118 10 118 13 l 118 292 b 118 389 197 465 291 465 b 385 465 463 389 463 292 l 463 13 z"},"h":{"x_min":0,"x_max":613,"ha":613,"o":"m 465 13 b 465 6 470 0 478 0 b 484 0 490 6 490 13 l 490 291 b 490 401 402 490 292 490 b 217 490 152 448 118 387 l 118 687 b 118 694 113 700 106 700 b 99 700 93 694 93 687 l 93 299 l 93 291 l 93 13 l 93 11 b 93 8 95 5 97 3 b 100 1 103 0 106 0 l 108 0 b 109 0 111 1 113 2 b 116 4 118 8 118 13 l 118 298 b 122 390 198 464 292 464 b 388 464 465 387 465 291 l 465 13 z"},"z":{"x_min":0,"x_max":554,"ha":554,"o":"m 390 464 l 66 20 b 61 15 62 8 66 4 b 67 3 69 2 71 1 b 72 0 74 0 76 0 l 415 0 b 423 0 428 5 428 13 b 428 19 423 25 415 25 l 100 25 l 422 465 b 424 467 426 469 427 472 b 427 473 428 474 428 475 l 428 477 l 428 479 b 427 482 426 485 423 487 b 420 489 418 490 412 490 l 76 490 b 69 490 64 483 64 477 b 64 470 69 464 76 464 z"},"B":{"x_min":0,"x_max":594,"ha":594,"o":"m 104 13 b 104 6 109 0 117 0 l 119 0 l 323 0 b 431 0 517 87 517 195 b 517 289 449 368 359 385 b 411 414 446 468 446 532 b 446 624 370 700 277 700 l 119 700 l 117 700 b 109 700 104 694 104 687 z m 129 25 l 129 363 l 323 363 b 417 363 491 287 491 195 b 491 101 417 25 323 25 z m 129 390 l 129 675 l 277 675 b 356 673 419 610 420 532 b 419 453 356 390 277 390 z"},"K":{"x_min":0,"x_max":715,"ha":715,"o":"m 104 13 b 104 6 109 0 117 0 b 123 0 130 6 130 13 l 130 199 b 131 199 131 200 132 201 l 303 373 l 589 5 b 592 3 595 0 599 0 b 602 0 604 1 607 4 b 612 8 613 15 608 22 l 321 391 l 607 677 b 612 682 612 690 607 695 b 602 700 595 700 589 695 l 130 236 l 130 686 b 130 692 123 699 117 699 b 109 699 104 692 104 686 l 104 13 z"},"R":{"x_min":0,"x_max":625,"ha":625,"o":"m 484 38 b 494 18 510 11 520 11 b 528 11 539 14 537 27 b 536 33 529 38 521 37 b 518 37 512 36 505 49 b 498 63 490 94 490 151 b 490 228 443 276 399 301 b 387 308 375 314 363 319 b 444 342 503 416 503 505 b 503 613 415 700 308 700 l 105 700 l 104 700 l 103 700 b 96 700 90 694 90 687 l 90 13 b 90 6 96 0 103 0 b 110 0 115 6 115 13 l 115 311 l 238 311 b 348 311 388 283 415 259 b 443 234 465 200 465 151 b 465 91 472 58 484 38 z m 115 337 l 115 675 l 308 675 b 401 675 477 599 477 505 b 477 411 402 338 310 337 l 308 337 z"},"T":{"x_min":0,"x_max":648,"ha":648,"o":"m 294 13 b 294 6 299 0 307 0 b 313 0 320 6 320 13 l 320 675 l 550 675 b 558 675 563 680 563 687 b 563 694 558 700 550 700 l 63 700 b 56 700 50 694 50 687 b 50 680 56 675 63 675 l 294 675 l 294 13 z"},"P":{"x_min":0,"x_max":583,"ha":583,"o":"m 104 13 b 104 6 110 0 117 0 b 124 0 129 6 129 13 l 129 311 l 322 311 b 429 311 517 397 517 505 b 517 613 429 700 322 700 l 119 700 l 117 700 b 110 700 104 694 104 687 z m 129 337 l 129 675 l 322 675 b 415 675 491 599 491 505 b 491 411 415 337 322 337 z"},"|":{"x_min":0,"x_max":286,"ha":286,"o":"m 121 -110 b 121 -122 122 -132 134 -132 b 146 -132 150 -122 150 -110 l 150 780 b 150 792 146 802 134 802 b 122 802 121 792 121 780 z"},"t":{"x_min":0,"x_max":400,"ha":400,"o":"m 244 490 l 164 490 l 164 686 b 164 693 158 699 151 699 b 144 699 139 693 139 686 l 139 686 l 139 490 l 55 490 b 48 490 42 484 42 477 b 42 470 48 465 55 465 l 139 465 l 139 75 b 139 33 173 -1 215 -1 b 222 -1 228 5 228 12 b 228 19 222 24 215 24 b 187 24 164 47 164 75 l 164 465 l 244 465 b 251 465 257 470 257 477 b 257 484 251 490 244 490 z"},"M":{"x_min":0,"x_max":844,"ha":844,"o":"m 664 13 b 664 6 670 0 676 0 b 684 0 689 6 689 13 l 689 686 b 689 692 684 699 676 699 b 675 699 674 699 673 698 b 670 698 667 696 665 694 l 397 322 l 129 694 b 126 696 123 698 120 698 b 119 699 118 699 117 699 b 110 699 104 692 104 686 l 104 13 b 104 6 110 0 117 0 b 124 0 129 6 129 13 l 129 650 l 385 294 b 387 291 391 289 396 289 l 398 289 b 402 289 406 291 409 294 l 664 649 l 664 13 z"},"g":{"x_min":0,"x_max":660,"ha":660,"o":"m 509 490 b 503 490 497 484 497 477 l 497 477 l 497 356 b 460 434 381 490 291 490 b 163 490 60 380 60 245 b 60 111 163 0 291 0 b 381 0 460 56 497 135 l 497 28 b 497 -86 405 -177 291 -179 b 258 -179 229 -171 201 -157 b 194 -155 187 -157 184 -163 b 181 -169 183 -176 189 -180 b 221 -195 254 -204 291 -204 b 419 -204 522 -100 522 28 l 522 477 b 522 484 517 490 509 490 z m 497 245 b 497 123 404 26 291 26 b 178 26 85 123 85 245 b 85 367 178 465 291 465 b 404 465 497 367 497 245 l 497 245 z"},"j":{"x_min":0,"x_max":249,"ha":249,"o":"m -5 -192 b -5 -197 0 -203 7 -203 b 50 -203 84 -169 84 -126 l 84 478 b 84 484 77 490 70 490 b 63 490 58 484 58 478 l 58 -126 b 58 -156 35 -178 7 -178 b 0 -178 -5 -183 -5 -192 z m 60 613 b 60 606 65 601 73 601 b 79 601 87 606 87 613 l 87 637 b 87 644 79 650 73 650 b 65 650 60 644 60 637 z"},"i":{"x_min":0,"x_max":281,"ha":281,"o":"m 94 13 b 94 6 99 0 107 0 b 113 0 119 6 119 13 l 119 478 b 119 486 113 490 107 490 b 99 490 94 486 94 478 z m 94 611 b 94 605 99 599 107 599 b 113 599 119 605 119 611 l 119 635 b 119 643 113 648 107 648 b 99 648 94 643 94 635 z"},"y":{"x_min":0,"x_max":588,"ha":588,"o":"m 52 198 b 52 90 140 2 249 2 b 322 2 386 42 418 102 l 418 28 b 418 -85 327 -177 213 -177 b 180 -177 151 -169 123 -155 b 118 -153 110 -155 108 -161 b 104 -168 106 -175 113 -178 b 143 -193 177 -202 213 -202 b 341 -202 443 -98 443 28 l 443 477 b 443 480 442 483 440 485 b 440 485 440 486 439 486 l 436 489 b 435 489 434 490 433 490 l 431 490 b 428 490 426 489 424 488 l 421 485 b 420 485 420 484 420 484 b 419 482 418 480 418 479 l 418 477 l 418 191 b 414 100 340 27 249 27 b 154 27 77 104 77 198 l 77 477 b 77 484 71 490 65 490 b 57 490 52 484 52 477 l 52 198 z"},"@":{"x_min":0,"x_max":980,"ha":980,"o":"m 53 350 b 53 157 210 0 403 0 b 433 0 463 4 490 10 b 497 13 501 19 500 27 b 497 33 490 37 483 36 b 458 29 431 26 403 26 b 224 26 79 171 79 350 b 79 530 224 675 403 675 b 583 675 728 530 728 350 b 728 297 715 246 693 203 b 693 203 691 198 688 194 b 678 180 654 151 624 146 b 620 143 616 143 611 143 b 598 143 591 148 584 156 b 578 164 574 176 574 184 l 574 340 l 574 343 l 574 350 b 574 450 498 531 403 531 b 309 531 231 450 231 350 b 231 251 309 168 403 168 b 466 168 520 204 550 257 l 550 181 b 550 167 554 153 564 141 b 573 127 590 117 611 117 b 617 117 623 118 630 118 b 685 133 714 188 715 190 b 740 238 754 293 754 350 b 754 544 597 701 403 701 b 210 701 53 544 53 350 z m 257 350 b 257 437 323 507 403 507 b 483 507 550 437 550 350 b 550 264 483 194 403 194 b 323 194 257 264 257 350 z"},".":{"x_min":0,"x_max":230,"ha":230,"o":"m 82 26 b 82 7 97 -8 116 -8 b 135 -8 150 7 150 26 b 150 45 135 60 116 60 b 97 60 82 45 82 26 z"},"p":{"x_min":0,"x_max":660,"ha":660,"o":"m 93 -201 b 93 -209 98 -214 106 -214 b 113 -214 118 -209 118 -201 l 118 138 b 156 60 236 5 327 5 b 459 5 563 114 563 248 b 563 382 459 490 327 490 b 236 490 156 436 118 356 l 118 477 b 118 485 113 490 106 490 b 98 490 93 485 93 477 l 93 258 l 93 248 l 93 238 z m 118 257 b 122 372 216 465 327 465 b 442 465 537 367 537 248 b 537 128 442 31 327 31 b 213 31 118 128 118 248 z"},"X":{"x_min":0,"x_max":722,"ha":722,"o":"m 79 3 b 82 1 84 0 87 0 b 91 0 94 3 97 5 l 332 328 l 568 5 b 571 3 575 0 578 0 b 581 0 583 1 586 3 b 591 8 592 15 589 20 l 348 349 l 589 679 b 592 684 591 692 586 696 b 580 700 572 699 568 694 l 332 371 l 97 694 b 93 699 84 700 79 696 b 73 692 73 684 77 679 l 317 349 l 77 20 b 73 15 73 8 79 3 z"},"*":{"x_min":0,"x_max":430,"ha":430,"o":"m 195 424 b 194 412 203 402 215 402 b 227 402 236 412 235 424 l 227 533 l 318 471 b 324 467 328 465 334 465 b 345 465 354 475 354 486 b 354 497 347 502 340 505 l 237 554 l 340 603 b 347 606 354 611 354 622 b 354 633 345 643 334 643 b 328 643 324 641 318 637 l 227 575 l 235 684 b 236 696 227 706 215 706 b 203 706 194 696 195 684 l 203 575 l 112 637 b 106 641 103 643 96 643 b 85 642 76 633 76 622 b 76 613 82 607 90 603 l 193 554 l 90 505 b 83 502 76 495 76 486 b 76 475 85 465 96 465 b 102 465 106 467 112 471 l 203 533 z"},"Y":{"x_min":0,"x_max":604,"ha":604,"o":"m 304 13 b 304 6 310 0 317 0 b 324 0 329 6 329 13 l 329 342 l 576 679 b 580 684 578 692 572 696 b 567 700 559 699 554 694 l 317 367 l 79 694 b 75 699 67 700 62 696 b 55 692 54 684 59 679 l 304 342 l 304 13 z"},"c":{"x_min":0,"x_max":571,"ha":571,"o":"m 58 245 b 58 111 171 1 310 0 b 368 0 423 20 466 53 b 471 58 471 65 467 71 b 463 76 455 77 450 74 b 411 44 362 25 310 25 b 183 25 83 124 83 245 b 83 366 183 465 310 465 b 362 465 411 447 450 417 b 456 413 463 413 467 418 b 471 424 471 432 466 437 b 423 471 368 490 310 490 b 171 490 58 380 58 245 z"},"!":{"x_min":0,"x_max":252,"ha":252,"o":"m 93 167 l 93 167 b 93 160 98 155 106 155 l 106 155 b 112 155 118 160 118 167 l 118 687 l 118 687 b 118 695 112 700 106 700 l 106 700 b 98 700 93 695 93 687 z m 93 13 l 93 13 b 93 5 98 0 106 0 l 106 0 b 112 0 118 5 118 13 l 118 37 l 118 37 b 118 43 112 49 106 49 l 106 49 b 98 49 93 43 93 37 z"},"/":{"x_min":0,"x_max":422,"ha":422,"o":"m 82 1 l 82 1 b 83 0 86 0 87 0 l 87 0 b 92 0 97 3 98 8 l 383 681 l 383 681 b 385 687 381 695 375 697 l 375 697 b 369 700 361 696 359 690 l 76 18 l 76 18 b 73 11 76 4 82 1 z"},"[":{"x_min":0,"x_max":430,"ha":430,"o":"m 98 -104 b 98 -118 110 -130 124 -130 l 356 -130 b 366 -130 374 -129 374 -119 b 374 -109 366 -106 356 -106 l 123 -106 l 123 676 l 356 676 b 366 676 374 676 374 686 b 374 696 366 700 356 700 l 124 700 b 110 700 98 688 98 674 z"},"6":{"x_min":0,"x_max":642,"ha":642,"o":"m 67 205 b 67 204 67 202 68 201 b 80 87 176 0 293 0 b 418 0 520 101 521 227 b 520 352 418 453 293 453 b 205 453 129 404 92 331 b 99 403 118 476 154 537 b 201 615 270 670 377 675 b 383 675 388 681 388 687 b 388 695 382 700 375 700 b 260 695 180 633 132 549 b 84 466 64 361 64 267 b 64 246 65 225 67 205 z m 92 227 b 92 338 182 428 293 428 b 405 428 494 338 496 227 b 494 115 405 25 293 25 b 182 25 92 115 92 227 z"},"r":{"x_min":0,"x_max":439,"ha":439,"o":"m 94 13 b 94 5 100 0 106 0 b 114 0 118 5 118 13 l 118 242 b 118 242 122 254 130 276 b 143 307 167 357 202 397 b 235 434 282 464 344 464 b 352 464 357 470 357 477 b 357 484 352 490 344 490 b 250 490 187 426 149 369 b 136 349 126 329 118 311 l 118 477 b 118 484 114 490 106 490 b 100 490 94 484 94 477 l 94 248 b 93 245 93 244 94 242 l 94 13 z"},"2":{"x_min":0,"x_max":590,"ha":590,"o":"m 48 5 b 50 1 54 0 58 0 l 59 0 l 62 0 l 466 0 b 472 0 478 6 478 13 b 478 20 472 25 466 25 l 89 25 l 403 310 b 453 354 478 415 478 476 b 478 529 458 584 420 627 b 376 675 315 700 254 700 b 200 700 147 681 103 642 l 68 609 b 63 605 62 596 67 591 b 72 586 79 586 85 591 l 120 623 b 158 657 206 675 254 675 b 307 675 362 652 401 609 b 435 571 453 523 453 476 b 453 422 430 368 387 328 l 49 23 b 44 18 44 10 48 5 z"},"{":{"x_min":0,"x_max":480,"ha":480,"o":"m 406 -139 b 417 -141 427 -143 427 -131 b 427 -123 421 -119 415 -117 b 270 -79 234 -31 234 68 l 234 143 b 234 232 197 265 130 287 b 193 306 234 342 234 431 l 234 506 b 234 605 270 653 415 691 b 421 693 427 696 427 704 b 427 716 417 715 406 713 b 237 679 205 615 205 512 l 205 433 b 205 355 182 306 79 306 b 63 306 55 298 55 287 b 55 276 63 268 79 268 b 182 268 205 219 205 141 l 205 62 b 205 -41 237 -105 406 -139 z"},"9":{"x_min":0,"x_max":642,"ha":642,"o":"m 66 473 b 66 348 169 247 294 247 b 381 247 457 296 494 368 b 487 297 466 223 432 163 b 386 86 317 30 210 25 b 204 25 198 19 199 13 b 199 5 204 0 212 0 b 327 5 405 67 455 151 b 503 235 523 339 523 433 b 523 453 522 473 519 492 b 509 609 412 700 294 700 b 169 700 66 599 66 473 z m 91 473 b 91 585 182 675 294 675 b 398 675 484 596 494 493 l 494 492 l 494 488 b 495 483 495 478 495 473 b 495 362 405 272 294 272 b 182 272 91 362 91 473 z"}," ":{"x_min":0,"x_max":300,"ha":300,"o":""},"I":{"x_min":0,"x_max":305,"ha":305,"o":"m 111 13 l 111 13 b 111 5 116 0 124 0 l 124 0 b 130 0 136 5 136 13 l 136 687 l 136 687 b 136 695 130 700 124 700 l 124 700 b 116 700 111 695 111 687 l 111 13 z"},"H":{"x_min":0,"x_max":709,"ha":709,"o":"m 527 13 b 527 6 532 0 539 0 b 546 0 552 6 552 13 l 552 687 b 552 694 546 700 539 700 b 532 700 527 694 527 687 l 527 363 l 129 363 l 129 687 b 129 694 123 700 117 700 b 109 700 104 694 104 687 l 104 13 b 104 6 109 0 117 0 b 123 0 129 6 129 13 l 129 338 l 527 338 l 527 13 z"},"4":{"x_min":0,"x_max":664,"ha":664,"o":"m 470 13 b 470 6 477 0 483 0 b 491 0 496 6 496 13 l 496 149 l 557 149 b 565 149 570 154 570 162 b 570 169 565 174 557 174 l 496 174 l 496 685 l 496 687 b 496 688 495 689 495 690 b 494 691 494 692 493 693 b 491 696 487 699 483 699 b 480 699 478 698 475 696 l 473 694 l 51 169 b 47 164 48 157 53 152 b 56 150 58 149 61 149 l 63 149 l 470 149 z m 87 174 l 470 648 l 470 174 z"},"~":{"x_min":0,"x_max":460,"ha":460,"o":"m 117 253 b 129 280 143 292 165 292 b 201 292 257 253 293 253 b 332 253 359 281 372 321 b 373 324 374 330 374 333 b 374 343 366 350 356 350 b 347 350 346 339 343 333 b 331 306 315 290 293 290 b 259 290 203 328 165 328 b 138 328 99 299 89 268 b 88 265 85 257 85 254 b 85 244 91 241 101 241 b 111 241 114 247 117 253 z"},"D":{"x_min":0,"x_max":719,"ha":719,"o":"m 104 13 b 104 6 109 0 117 0 l 118 0 l 251 0 b 445 0 601 157 601 351 b 601 543 445 700 251 700 l 118 700 l 117 700 b 109 700 104 694 104 687 z m 129 25 l 129 675 l 251 675 b 431 675 575 529 576 351 b 575 171 431 27 251 25 z"},"^":{"x_min":0,"x_max":500,"ha":500,"o":"m 93 173 b 100 172 103 172 109 177 l 289 318 l 467 177 b 478 168 497 164 497 181 b 497 189 495 197 488 202 l 310 339 b 301 346 295 349 288 349 b 281 349 275 346 266 339 l 87 202 b 80 197 81 174 93 173 z"},"0":{"x_min":0,"x_max":710,"ha":710,"o":"m 65 351 l 65 351 b 65 161 168 1 303 0 l 303 0 b 440 1 542 161 542 351 l 542 351 b 542 539 440 699 303 700 l 303 700 b 168 699 65 539 65 351 z m 155 581 l 155 581 b 194 641 247 675 303 675 l 303 675 b 360 675 413 641 452 581 l 452 581 b 492 523 517 441 517 351 l 517 351 b 517 259 492 177 452 119 l 452 119 b 413 59 360 25 303 25 l 303 25 b 247 25 194 59 155 119 l 155 119 b 116 177 90 259 90 351 l 90 351 b 90 441 116 523 155 581 z"},"F":{"x_min":0,"x_max":605,"ha":605,"o":"m 104 13 b 104 6 109 0 115 0 b 123 0 128 6 128 13 l 128 338 l 446 338 b 453 338 458 343 458 351 b 458 357 453 363 446 363 l 128 363 l 128 675 l 489 675 b 496 675 501 680 501 687 b 501 694 496 700 489 700 l 118 700 l 117 700 l 115 700 b 109 700 104 694 104 687 l 104 13 z"},"`":{"x_min":0,"x_max":500,"ha":500,"o":"m 271 598 b 277 595 278 596 278 601 b 278 605 276 609 274 612 l 212 705 b 204 717 196 723 184 723 b 165 723 169 713 166 708 b 163 703 170 696 176 690 l 247 613 b 258 601 261 602 271 598 z"},"k":{"x_min":0,"x_max":560,"ha":560,"o":"m 93 13 b 93 6 98 0 106 0 b 112 0 118 6 118 13 l 118 133 b 119 133 120 134 121 135 l 236 250 l 439 5 b 441 1 445 0 449 0 b 451 0 454 1 456 3 b 461 8 463 15 458 22 l 255 269 l 458 472 b 463 477 463 485 458 490 b 452 495 445 495 440 490 l 118 168 l 118 687 b 118 694 112 700 106 700 b 98 700 93 694 93 687 l 93 13 z"},"u":{"x_min":0,"x_max":613,"ha":613,"o":"m 83 198 l 83 198 b 83 88 171 0 279 0 l 279 0 b 388 0 477 88 477 198 l 477 477 l 477 477 b 477 484 471 490 464 490 l 464 490 b 458 490 451 484 451 477 l 451 198 l 451 198 b 451 102 374 25 279 25 l 279 25 b 185 25 108 102 108 198 l 108 477 l 108 477 b 108 484 102 490 96 490 l 96 490 b 88 490 83 484 83 477 l 83 198 z"},"]":{"x_min":0,"x_max":430,"ha":430,"o":"m 331 674 b 331 688 319 700 305 700 l 73 700 b 63 700 55 696 55 686 b 55 676 63 676 73 676 l 306 676 l 306 -106 l 73 -106 b 63 -106 55 -109 55 -119 b 55 -129 63 -130 73 -130 l 305 -130 b 319 -130 331 -118 331 -104 z"},"U":{"x_min":0,"x_max":814,"ha":814,"o":"m 105 281 b 105 125 230 0 385 0 b 539 0 666 125 666 281 l 666 687 b 666 694 659 700 653 700 b 646 700 640 694 640 687 l 640 281 b 639 139 525 27 385 25 b 244 27 130 139 130 281 l 130 687 b 130 694 125 700 118 700 b 110 700 105 694 105 687 l 105 281 z"},"o":{"x_min":0,"x_max":625,"ha":625,"o":"m 70 245 l 70 245 b 70 111 173 0 301 0 l 301 0 b 429 0 533 111 533 245 l 533 245 b 533 380 429 490 301 490 l 301 490 b 173 490 70 380 70 245 z m 95 245 l 95 245 b 95 367 188 465 301 465 l 301 465 b 414 465 508 367 508 245 l 508 245 b 508 124 414 25 301 25 l 301 25 b 188 25 95 124 95 245 z"},"N":{"x_min":0,"x_max":771,"ha":771,"o":"m 589 9 b 589 8 589 8 590 8 b 592 3 597 0 602 0 b 609 0 614 6 614 13 l 614 682 b 614 689 609 695 602 695 b 596 695 589 689 589 682 l 589 52 l 127 694 b 123 699 116 700 109 696 b 106 693 104 689 104 685 l 104 682 l 104 13 b 104 6 111 0 117 0 b 124 0 129 6 129 13 l 129 648 l 589 9 z"},"+":{"x_min":0,"x_max":620,"ha":620,"o":"m 293 116 b 293 106 300 98 311 98 b 319 98 328 106 328 116 l 328 327 l 540 327 b 548 327 557 335 557 345 b 557 355 548 362 540 362 l 328 362 l 328 574 b 328 584 319 591 311 591 b 300 591 293 584 293 574 l 293 362 l 82 362 b 71 362 64 355 64 345 b 64 335 71 327 82 327 l 293 327 l 293 116 z"},"G":{"x_min":0,"x_max":814,"ha":814,"o":"m 652 332 l 652 95 b 594 52 521 26 443 26 b 253 26 99 176 99 362 b 99 545 253 696 443 696 b 524 696 599 668 657 622 b 662 617 672 618 676 623 b 681 630 680 638 673 643 b 611 692 530 721 443 721 b 239 721 73 560 73 362 b 73 162 239 1 443 0 b 530 0 611 30 673 78 b 675 80 676 82 677 85 l 677 87 b 678 88 678 89 678 90 l 678 344 b 678 352 673 358 666 358 l 664 358 l 437 358 b 431 358 424 352 424 344 b 424 338 431 332 437 332 z"},"q":{"x_min":0,"x_max":660,"ha":660,"o":"m 530 -201 l 530 238 l 530 248 l 530 258 l 530 477 b 530 485 525 490 517 490 b 510 490 505 485 505 477 l 505 356 b 467 436 387 490 296 490 b 164 490 60 382 60 248 b 60 114 164 5 296 5 b 387 5 467 60 505 138 l 505 -201 b 505 -209 510 -214 517 -214 b 525 -214 530 -209 530 -201 z m 505 248 b 505 128 410 31 296 31 b 181 31 86 128 86 248 b 86 367 181 465 296 465 b 407 465 501 372 505 257 z"},"d":{"x_min":0,"x_max":660,"ha":660,"o":"m 534 13 l 534 234 l 534 246 l 534 256 l 534 685 b 534 692 529 700 521 700 b 515 700 509 692 509 685 l 509 355 b 470 435 390 490 298 490 b 166 490 60 380 60 246 b 60 111 166 0 298 0 b 390 0 470 55 509 134 l 509 13 b 509 6 515 0 521 0 b 529 0 534 6 534 13 z m 509 246 b 509 124 413 25 298 25 b 181 25 85 124 85 246 b 85 367 181 465 298 465 b 410 465 505 372 509 255 z"},"1":{"x_min":0,"x_max":335,"ha":335,"o":"m 172 13 l 172 13 b 172 6 178 0 184 0 l 184 0 b 192 0 197 6 197 13 l 197 686 l 197 686 b 197 692 192 699 184 699 l 184 699 b 178 699 172 692 172 686 z m 33 596 l 33 596 b 35 591 40 590 44 590 l 44 590 b 46 590 48 590 50 591 l 190 675 l 190 675 b 197 679 199 686 196 692 l 196 692 b 192 699 184 700 178 696 l 38 613 l 38 613 b 31 609 30 601 33 596 z"},"5":{"x_min":0,"x_max":605,"ha":605,"o":"m 229 0 b 289 0 349 23 394 69 b 440 114 463 174 463 234 b 463 294 440 353 396 398 b 350 444 290 466 230 466 b 181 466 132 451 91 420 l 121 674 l 450 674 b 457 674 463 679 463 687 b 463 693 457 700 450 700 l 112 700 b 109 700 107 699 105 698 b 101 697 97 693 96 687 l 61 392 b 60 388 61 385 63 382 b 63 382 63 381 64 381 b 64 380 65 379 66 379 b 71 375 80 375 83 380 b 125 420 177 440 230 440 b 284 440 336 420 376 380 b 417 340 437 286 437 234 b 437 181 417 128 376 87 b 336 47 282 26 229 26 b 177 26 124 47 83 87 b 78 92 70 92 65 87 b 60 82 60 73 65 69 b 111 23 171 0 229 0 z"}}}
